<?xml version="1.0" encoding="UTF-8" standalone="no"?>
<!DOCTYPE svg PUBLIC "-//W3C//DTD SVG 1.1//EN" "http://www.w3.org/Graphics/SVG/1.1/DTD/svg11.dtd">
<svg width="100%" height="100%" viewBox="0 0 89 91" version="1.1" xmlns="http://www.w3.org/2000/svg" xmlns:xlink="http://www.w3.org/1999/xlink" xml:space="preserve" xmlns:serif="http://www.serif.com/" style="fill-rule:evenodd;clip-rule:evenodd;stroke-linecap:round;stroke-linejoin:round;stroke-miterlimit:1.5;">
    <g transform="matrix(1,0,0,1,-4048.97,-12.1071)">
        <g transform="matrix(1.0037,0,0,0.858988,4025.77,-1067.93)">
            <g id="BangkokReflexologylogoNAV-" serif:id="BangkokReflexologylogoNAV ">
                <g transform="matrix(0.996315,0,0,1.16416,-4010.94,1243.24)">
                    <rect x="4049.32" y="12.457" width="88.245" height="89.868" style="stroke:white;stroke-width:0.7px;"/>
                </g>
                <g id="logo" transform="matrix(0.0990597,0,0,0.115748,13.2059,1249.28)">
                    <g transform="matrix(1,0,0,0.997364,-4.9848,2.47937)">
                        <rect x="136.09" y="106.354" width="831.57" height="834.272" style="fill:white;stroke:white;stroke-width:2.52px;"/>
                    </g>
                    <g transform="matrix(4.32397,0,0,4.32397,-17354.5,157.425)">
                        <text x="4128.99px" y="92.381px" style="font-family:'Roboto-Bold', 'Roboto';font-weight:700;font-size:17.584px;">ANGK<tspan x="4176.11px " y="92.381px ">O</tspan>K</text>
                    </g>
                    <g transform="matrix(4.32397,0,0,4.32397,-17657,267.115)">
                        <text x="4128.99px" y="92.381px" style="font-family:'Roboto-Bold', 'Roboto';font-weight:700;font-size:17.584px;">R E F L E X O L O G Y</text>
                    </g>
                    <g transform="matrix(4.32397,0,0,4.32397,-17657,395.97)">
                        <text x="4128.99px" y="92.381px" style="font-family:'Roboto-Bold', 'Roboto';font-weight:700;font-size:17.584px;">M A S S A G E</text>
                    </g>
                    <g transform="matrix(4.32397,0,0,4.32397,-17657,334.957)">
                        <text x="4128.99px" y="92.381px" style="font-family:'Roboto-Bold', 'Roboto';font-weight:700;font-size:17.584px;">&amp;</text>
                    </g>
                    <g transform="matrix(0.900338,0,0,0.900338,-4407.88,-273.299)">
                        <clipPath id="_clip1">
                            <path d="M5120.74,952.275L5120.74,566.144L5255.99,566.144C5302.84,566.144 5338.38,575.117 5362.6,593.062C5386.82,611.007 5398.93,637.306 5398.93,671.959C5398.93,690.876 5394.07,707.54 5384.35,721.949C5374.62,736.358 5361.1,746.922 5343.77,753.64C5363.57,758.591 5379.18,768.58 5390.58,783.608C5401.98,798.636 5407.68,817.023 5407.68,838.769C5407.68,875.897 5395.84,904.009 5372.15,923.103C5348.46,942.197 5314.69,951.921 5270.84,952.275L5120.74,952.275ZM5200.3,784.138L5200.3,888.362L5268.45,888.362C5287.19,888.362 5301.82,883.898 5312.35,874.969C5322.86,866.041 5328.12,853.709 5328.12,837.974C5328.12,802.614 5309.82,784.669 5273.23,784.138L5200.3,784.138ZM5200.3,727.916L5259.17,727.916C5299.31,727.209 5319.37,711.208 5319.37,679.915C5319.37,662.412 5314.29,649.815 5304.12,642.124C5293.96,634.433 5277.91,630.588 5255.99,630.588L5200.3,630.588L5200.3,727.916Z" clip-rule="nonzero"/>
                        </clipPath>
                        <g clip-path="url(#_clip1)">
                            <text x="5086.26px" y="952.275px" style="font-family:'Roboto-Bold', 'Roboto';font-weight:700;font-size:543.129px;">B</text>
                            <g transform="matrix(0.501094,0,0,0.501094,5268.67,720.786)">
                                <g transform="matrix(1,0,0,1,-346.303,-374.367)">
                                    <clipPath id="_clip2">
                                        <rect x="0" y="0" width="692.605" height="748.733"/>
                                    </clipPath>
                                    <g clip-path="url(#_clip2)">
                                        <circle cx="485.389" cy="252.49" r="75.365" style="fill:rgb(255,101,132);"/>
                                        <g transform="matrix(1,0,0,1,-253.697,-75.6335)">
                                            <path d="M945.818,384.315C945.984,384.285 946.109,384.168 946.303,384.198C946.218,383.872 946.107,383.553 945.972,383.244C945.732,383.571 945.488,383.904 945.273,384.197L945.818,384.315Z" style="fill:white;fill-rule:nonzero;"/>
                                        </g>
                                        <g transform="matrix(1,0,0,1,-253.697,-75.6335)">
                                            <path d="M440.33,506.498C440.77,522.941 443.524,539.24 448.512,554.914C448.626,555.278 448.745,555.636 448.864,556L479.397,556C479.365,555.674 479.332,555.311 479.299,554.914C477.263,531.51 465.526,389.064 479.56,364.704C478.333,366.68 437.963,432.132 440.33,506.498Z" style="fill:rgb(230,230,230);fill-rule:nonzero;"/>
                                        </g>
                                        <g transform="matrix(1,0,0,1,-253.697,-75.6335)">
                                            <path d="M442.621,554.914C442.876,555.278 443.142,555.642 443.414,556L466.319,556C466.145,555.691 465.944,555.327 465.711,554.914C461.927,548.085 450.727,527.666 440.33,506.498C429.157,483.751 418.907,460.14 419.77,451.595C419.504,453.522 411.773,512.275 442.621,554.914Z" style="fill:rgb(230,230,230);fill-rule:nonzero;"/>
                                        </g>
                                        <g transform="matrix(1,0,0,1,-253.697,-75.6335)">
                                            <path d="M680.636,558.829C680.252,573.164 677.851,587.374 673.503,601.039C673.404,601.356 673.3,601.669 673.195,601.986L646.577,601.986C646.605,601.702 646.633,601.385 646.662,601.039C648.437,580.635 658.67,456.448 646.435,435.211C647.504,436.934 682.699,493.996 680.636,558.829Z" style="fill:rgb(230,230,230);fill-rule:nonzero;"/>
                                        </g>
                                        <g transform="matrix(1,0,0,1,-253.697,-75.6335)">
                                            <path d="M678.638,601.039C678.416,601.356 678.184,601.673 677.947,601.986L657.979,601.986C658.13,601.716 658.305,601.399 658.509,601.039C661.808,595.085 671.572,577.284 680.636,558.829C690.376,538.998 699.313,518.414 698.56,510.964C698.792,512.644 705.532,563.865 678.638,601.039Z" style="fill:rgb(230,230,230);fill-rule:nonzero;"/>
                                        </g>
                                        <g transform="matrix(1,0,0,1,-253.697,-75.6335)">
                                            <path d="M376.281,136.806L388.694,126.878C379.051,125.814 375.089,131.073 373.467,135.236C365.933,132.108 357.732,136.208 357.732,136.208L382.569,145.224C381.316,141.878 379.134,138.957 376.281,136.806Z" style="fill:rgb(63,61,86);fill-rule:nonzero;"/>
                                        </g>
                                        <g transform="matrix(1,0,0,1,-253.697,-75.6335)">
                                            <path d="M750.165,85.701L762.579,75.773C752.935,74.709 748.973,79.968 747.351,84.131C739.817,81.002 731.616,85.102 731.616,85.102L756.453,94.119C755.2,90.773 753.018,87.852 750.165,85.701Z" style="fill:rgb(63,61,86);fill-rule:nonzero;"/>
                                        </g>
                                        <g transform="matrix(1,0,0,1,-253.697,-75.6335)">
                                            <path d="M932.807,478.323C932.807,486.549 932.52,494.709 931.947,502.801C927.526,566.637 905.386,627.992 868.025,679.941C863.142,686.756 858.015,693.379 852.644,699.812C838.727,716.503 823.275,731.852 806.49,745.658L732.919,702.487L688.931,599.82C688.931,599.82 754.563,466.933 932.69,469.343C932.765,472.326 932.803,475.319 932.807,478.323Z" style="fill:rgb(63,61,86);fill-rule:nonzero;"/>
                                        </g>
                                        <g transform="matrix(1,0,0,1,-253.697,-75.6335)">
                                            <path d="M931.947,502.801C925.108,599.206 878.188,688.469 802.659,748.768L734.31,708.665L695.3,617.611C695.3,617.611 758.511,489.628 931.947,502.801Z" style="fill:rgb(108,99,255);fill-rule:nonzero;"/>
                                        </g>
                                        <g transform="matrix(1,0,0,1,-253.697,-75.6335)">
                                            <path d="M868.025,679.941C863.142,686.756 858.015,693.379 852.644,699.812C816.655,743.051 770.663,776.873 718.663,798.339C708.133,802.68 697.356,806.509 686.331,809.824C606.734,830.992 522.365,825.635 446.085,794.571C370.65,760.902 309.648,701.399 274.114,626.824C269.337,616.783 265.042,606.486 261.228,595.935C327.751,547.203 458.833,477.421 601.698,545.228C641.217,563.985 676.505,581.082 707.56,596.519C786.365,635.582 838.813,663.743 868.025,679.941Z" style="fill:rgb(63,61,86);fill-rule:nonzero;"/>
                                        </g>
                                        <g transform="matrix(1,0,0,1,-253.697,-75.6335)">
                                            <path d="M852.644,699.812C786.891,778.614 689.395,824.242 586.764,824.242C453.418,824.242 331.438,747.219 274.114,626.824C329.672,582.89 457.814,503.937 598.44,570.672C634.604,587.836 666.891,603.482 695.3,617.611C778.117,658.658 829.132,686.554 852.644,699.812Z" style="fill:rgb(108,99,255);fill-rule:nonzero;"/>
                                        </g>
                                        <g transform="matrix(1,0,0,1,-253.697,-75.6335)">
                                            <path d="M754.584,781.026C742.95,787.476 730.957,793.256 718.663,798.339C676.829,815.578 632.01,824.423 586.763,824.367C478.302,824.324 375.927,773.337 310.544,686.798C393.191,678.084 621.644,666.333 754.584,781.026Z" style="fill:rgb(63,61,86);fill-rule:nonzero;"/>
                                        </g>
                                        <g transform="matrix(1,0,0,1,-253.697,-75.6335)">
                                            <path d="M718.663,798.339C586.155,852.825 432.916,819.73 334.704,715.416C364.765,711 600.775,680.674 718.663,798.339Z" style="fill:rgb(108,99,255);fill-rule:nonzero;"/>
                                        </g>
                                        <g transform="matrix(1,0,0,1,-253.697,-75.6335)">
                                            <path d="M874.765,286.428L874.765,286.439C627.673,103.747 344.575,232.335 342.389,233.322L342.389,233.311C407.17,168.538 495.155,132.162 586.763,132.279C706.892,132.279 812.721,193.495 874.765,286.428Z" style="fill:rgb(230,230,230);fill-rule:nonzero;"/>
                                        </g>
                                        <g transform="matrix(0.984132,-0.177437,0.177437,0.984132,-307.053,-11.0592)">
                                            <ellipse cx="334.364" cy="330.602" rx="76.906" ry="156.919" style="fill:rgb(63,61,86);"/>
                                        </g>
                                        <g transform="matrix(1,0,0,1,-253.697,-75.6335)">
                                            <path d="M372.949,584.638C370.471,397.301 307.791,221.497 307.159,219.745L301.442,221.807C302.072,223.551 364.408,398.434 366.873,584.72L372.949,584.638Z" style="fill:rgb(108,99,255);fill-rule:nonzero;"/>
                                        </g>
                                        <g transform="matrix(0.307707,-0.951481,0.951481,0.307707,-355.861,432.823)">
                                            <rect x="295.289" y="285.001" width="6.078" height="78.867" style="fill:rgb(108,99,255);"/>
                                        </g>
                                        <g transform="matrix(0.78393,-0.62085,0.62085,0.78393,-377.645,227.738)">
                                            <rect x="334.438" y="326.719" width="78.87" height="6.078" style="fill:rgb(108,99,255);"/>
                                        </g>
                                        <ellipse cx="309.499" cy="212.589" rx="83.219" ry="169.801" style="fill:rgb(63,61,86);"/>
                                        <g transform="matrix(1,0,0,1,-253.697,-75.6335)">
                                            <path d="M555.512,566.159C588.842,366.184 555.848,166.932 555.51,164.945L549.027,166.043C549.363,168.021 582.168,366.226 549.025,565.08L555.512,566.159Z" style="fill:rgb(108,99,255);fill-rule:nonzero;"/>
                                        </g>
                                        <g transform="matrix(0.471652,-0.881785,0.881785,0.471652,-218.041,533.346)">
                                            <rect x="522.717" y="232.065" width="6.577" height="85.341" style="fill:rgb(108,99,255);"/>
                                        </g>
                                        <g transform="matrix(0.88165,-0.471904,0.471904,0.88165,-321.213,244.975)">
                                            <rect x="562.76" y="291.621" width="85.344" height="6.577" style="fill:rgb(108,99,255);"/>
                                        </g>
                                        <g transform="matrix(1,0,0,1,-253.697,-75.6335)">
                                            <path d="M924.676,403.403C894.143,386.261 862.242,371.676 829.302,359.798C647.162,293.89 466.55,319.291 395.856,413.615C450.872,298.062 647.183,261.727 845.288,333.409C868.345,341.745 890.909,351.385 912.872,362.282C917.657,375.73 921.6,389.464 924.676,403.403Z" style="fill:rgb(230,230,230);fill-rule:nonzero;"/>
                                        </g>
                                        <g transform="matrix(1,0,0,1,-253.697,-75.6335)">
                                            <path d="M678.684,217.456L691.098,207.528C681.454,206.464 677.492,211.723 675.87,215.886C668.336,212.757 660.135,216.857 660.135,216.857L684.972,225.874C683.719,222.528 681.537,219.607 678.684,217.456Z" style="fill:rgb(63,61,86);fill-rule:nonzero;"/>
                                        </g>
                                    </g>
                                </g>
                            </g>
                        </g>
                    </g>
                    <g transform="matrix(14.5384,0,0,1.04204,-8769.09,133.854)">
                        <rect x="648.681" y="604.025" width="20.348" height="8.366"/>
                    </g>
                </g>
            </g>
        </g>
    </g>
</svg>
