<?xml version="1.0" encoding="UTF-8" standalone="no"?><!DOCTYPE svg PUBLIC "-//W3C//DTD SVG 1.1//EN" "http://www.w3.org/Graphics/SVG/1.1/DTD/svg11.dtd"><svg width="100%" height="100%" viewBox="0 0 377 283" version="1.1" xmlns="http://www.w3.org/2000/svg" xmlns:xlink="http://www.w3.org/1999/xlink" xml:space="preserve" xmlns:serif="http://www.serif.com/" style="fill-rule:evenodd;clip-rule:evenodd;stroke-linejoin:round;stroke-miterlimit:2;"><g id="faveiconAlone"><g id="kern-media" serif:id="kern media"><g><g><path d="M19.582,140.801l-7.081,13.341l31.966,16.966l7.081,-13.341l-31.966,-16.966Z" style="fill:#ffc45c;"/><path d="M369.548,140.971l7.081,13.341l-35.522,18.853l-7.081,-13.34l35.522,-18.854Z" style="fill:#ffc45c;"/><path d="M261.047,0l14.243,5.026l-30.171,85.504l-14.243,-5.025l30.171,-85.505Z" style="fill:#ffc45c;"/><path d="M39.224,85.292l-11.053,10.294l38.605,41.45l11.052,-10.293l-38.604,-41.451Z" style="fill:#ffc45c;"/><path d="M352.889,80.329l11.052,10.293l-45.143,48.471l-11.052,-10.293l45.143,-48.471Z" style="fill:#ffc45c;"/><path d="M183.956,22.352l15.103,0.094l-0.353,56.642l-15.103,-0.094l0.353,-56.642Z" style="fill:#ffc45c;"/><path d="M79.887,43.605l-13.08,7.552l33.104,57.337l13.08,-7.551l-33.104,-57.338Z" style="fill:#ffc45c;"/><path d="M295.56,63.203l13.08,7.551l-22.977,39.798l-13.079,-7.552l22.976,-39.797Z" style="fill:#ffc45c;"/><path d="M129.876,46.864l14.739,-3.296l8.782,39.265l-14.739,3.296l-8.782,-39.265Z" style="fill:#ffc45c;"/></g><path d="M311.131,198.315c3.537,10.452 5.71,21.525 6.309,33.012l53.964,-0l0,21.45c-60.051,6.335 -115.329,11.462 -164.368,22.067c-83.793,18.119 -155.71,-0.589 -207.036,-22.067l0,-21.45l70.958,-0c3.394,-65.081 57.315,-116.887 123.241,-116.887c50.77,0 94.42,23.354 113.36,67.213c-12.211,-0.841 -22.125,7.764 -22.125,7.764c-16.561,-19.135 -54.115,19.228 -54.115,19.228c20.825,-15.348 39.646,-18.135 56.291,-7.286c10.02,-9.37 17.681,-9.696 23.521,-3.044Zm-77.544,33.874c-0,-0 19.294,-21.49 27.164,-14.117c-0,-0 15.866,-10.6 22.994,4.461c-8.599,-7.755 -15.807,-7.623 -20.981,4.039c-5.211,-8.305 -15.177,-5.891 -29.177,5.617Z" style="fill:#ffc45c;"/></g></g></g></svg>